<?xml version="1.0" encoding="UTF-8"?>
<svg id="Calque_1" data-name="Calque 1" xmlns="http://www.w3.org/2000/svg" viewBox="0 0 92.17 92.13">
  <defs>
    <style>
      .cls-1 {
        fill: #999;
      }
    </style>
  </defs>
  <path class="cls-1" d="M91.91,44.92l-7.22-36.73c-.97-4.94-5.47-8.19-10.39-8.19H9.77C4.41,0,0,4.4,0,9.77v31.88c0,2.69,1.1,5.13,2.87,6.9s4.21,2.86,6.89,2.86h10.99l21.11,34.48c7.3,11.93,24.79,5.82,20.28-10.34l-4.84-17.36h24.22c3.39,0,6.4-1.49,8.48-4.19,2.04-2.66,2.55-5.86,1.91-9.08ZM19.48,45.66h0s-9.7,0-9.7,0c-1.1,0-2.11-.45-2.83-1.17-.73-.73-1.18-1.73-1.18-2.83V9.77c0-2.21,1.79-4,4-4h9.71v39.88h.01-.01Z"/>
</svg>