<?xml version="1.0" encoding="UTF-8"?>
<svg id="Calque_1" data-name="Calque 1" xmlns="http://www.w3.org/2000/svg" viewBox="0 0 92.16 92.12">
  <defs>
    <style>
      .cls-1 {
        fill: #999;
        fill-rule: evenodd;
      }
    </style>
  </defs>
  <path class="cls-1" d="M41.33,56.3l-5.8,20.78c-2.7,9.69,5.97,12.13,9.84,5.81l21.53-35.16V5.76H17.86c-2.21,0-4.3,1.31-4.74,3.53l-7.21,36.72c-.34,1.7-.2,3.14.83,4.5h0c.98,1.28,2.29,1.92,3.91,1.92h27.99c2.01,0,3.38,2.01,2.7,3.88h0ZM72.67,45.65h9.71c1.1,0,2.11-.45,2.83-1.17h0c.73-.73,1.18-1.73,1.18-2.83V9.77c0-2.21-1.79-4-4-4h-9.71v39.89ZM82.39,51.41h-10.98l-21.11,34.48c-7.3,11.93-24.79,5.82-20.28-10.34l4.84-17.36H10.64c-3.39,0-6.4-1.49-8.48-4.19h0c-2.04-2.66-2.55-5.86-1.91-9.08L7.47,8.19C8.44,3.25,12.94,0,17.86,0h64.53c5.36,0,9.77,4.4,9.77,9.77v31.88c0,2.69-1.1,5.13-2.87,6.9h0c-1.77,1.77-4.21,2.86-6.89,2.86h0Z"/>
</svg>