<?xml version="1.0" encoding="UTF-8"?>
<svg id="Calque_1" data-name="Calque 1" xmlns="http://www.w3.org/2000/svg" viewBox="0 0 95.04 95">
  <defs>
    <style>
      .cls-1 {
        fill: #fff;
      }
    </style>
  </defs>
  <path class="cls-1" d="M90.32,9l-4.3-4.3c-3.1-3.1-7.2-4.7-11.3-4.7s-8.2,1.6-11.3,4.7L4.82,63.3c-1.1,1.1-1.8,2.5-2,4L.02,91.2c-.2,2.1,1.4,3.8,3.4,3.8h.4l23.9-2.8c1.5-.2,3-.9,4-2l58.6-58.6c6.3-6.2,6.3-16.3,0-22.6ZM13.32,64.9L61.52,16.7l16.8,16.8-48.2,48.2-16.8-16.8ZM9.62,71.5l13.9,13.9-15.8,1.8,1.9-15.7ZM85.22,26.6l-1.8,1.8-16.8-16.8,1.8-1.8c1.7-1.7,3.9-2.6,6.2-2.6s4.6.9,6.2,2.6l4.3,4.3c1.7,1.7,2.6,3.9,2.6,6.2.1,2.4-.8,4.6-2.5,6.3Z"/>
</svg>