<?xml version="1.0" encoding="UTF-8"?>
<svg id="Calque_1" data-name="Calque 1" xmlns="http://www.w3.org/2000/svg" viewBox="0 0 30.02 29.99">
  <defs>
    <style>
      .cls-1 {
        fill: #2563eb;
      }
    </style>
  </defs>
  <path class="cls-1" d="M25.71,10.11L8.43,27.39l-.14-.16-.53-.53-.75-.71-4.4-4.4L19.9,4.3s5.81,5.81,5.81,5.81Z"/>
  <path class="cls-1" d="M6.72,28.5l-5.45,1.49h-.26c-.27,0-.52-.1-.71-.29-.27-.26-.37-.64-.26-1l1.46-5.45,5.22,5.25Z"/>
  <path class="cls-1" d="M29.72,6.1l-2.59,2.59-1.41-1.41h0l-3-3-1.41-1.4,2.59-2.6c.1-.09.21-.16.33-.21.31-.12.65-.09.93.08l.16.13,4.4,4.4c.39.39.39,1.02,0,1.41h0Z"/>
</svg>