<?xml version="1.0" encoding="UTF-8"?>
<svg id="Calque_1" data-name="Calque 1" xmlns="http://www.w3.org/2000/svg" viewBox="0 0 848 844.15">
  <defs>
    <style>
      .cls-1 {
        fill: #fff;
      }
    </style>
  </defs>
  <path class="cls-1" d="M630.59,393.88l-391.78,390.12c-1.19,1.24-2.53,2.33-4.01,3.25l-.39.24-.05.03-.39.22-.05.03-.4.22-.04.02-.42.21-.04.02-.43.2h-.03s-.45.21-.45.21h0l-.46.19h0l-.07.03-.42.16-.44.16-.06.02-.42.14-.08.02-.39.12-.12.04-.36.1-.15.04-201.71,53.41c-3.76,1.26-7.92,1.46-12.03.34-11.1-3.01-17.65-14.45-14.65-25.55l54.39-200.55h.04s.04-.15.04-.15c.11-.41.24-.83.39-1.24l.06-.15.11-.31.06-.15.06-.15.02-.05.04-.1.06-.15.06-.15.02-.06.04-.09.07-.15.06-.15.28-.59.07-.15.07-.15.05-.11.02-.04.08-.15.07-.15.06-.12.02-.02.08-.15.08-.14.07-.14h.01s.08-.15.08-.15l.09-.14.09-.15h0l.09-.13.09-.14.09-.14v-.02s.09-.12.09-.12l.09-.14.09-.14.02-.03.07-.11.09-.14.1-.14.03-.05.07-.09.1-.14.1-.13.04-.06.06-.07.11-.13.1-.13.06-.07.05-.06.11-.13.11-.13.07-.08.04-.05.11-.13.11-.13.08-.09.03-.03.12-.13.11-.13.1-.11.02-.02.12-.13.12-.12.11-.12h.01S448.45,221.7,448.45,221.7l5.56-5.65-.04-.04L663.88,6.1c8.13-8.13,21.32-8.13,29.46,0l.94,1,147.52,145.72c8.18,8.04,8.29,21.2.24,29.38l-.12.12.04.04c-70.48,70.48-140.82,141.13-211.41,211.49l.04.03ZM657.9,248.97c-8.18-8.04-8.29-21.2-.24-29.38,8.04-8.18,21.2-8.29,29.38-.24l29.73,29.37,81-81-118.98-117.53-81.02,81.02,49.63,48.97c8.18,8.04,8.29,21.2.24,29.38-8.04,8.18-21.2,8.29-29.38.24l-49.88-49.21-84.92,84.92-.04-.04c-124.75,126.77-252.62,251.7-378.71,377.28l119.05,117.61,377.5-375.91,2.46-2.69,83.65-83.65-29.48-29.13h0ZM183.34,758.82l-97.35-96.17-35.63,131.38,132.99-35.21h-.01Z"/>
</svg>