<svg xmlns="http://www.w3.org/2000/svg" version="1.1" viewBox="-5.0 -10.0 110.0 135.0">
 <path d="m30.438 4.0234c-7.7852 0-15.578 3.0234-21.523 8.9805-11.887 11.91-11.887 31.203 0 43.109l0.23047 0.23047 38.551 38.625h0.003907c0.027343 0.039062 0.054687 0.074219 0.085937 0.10938 0.38672 0.37891 0.86719 0.65234 1.3906 0.78906 0.19531 0.046874 0.39453 0.070312 0.59766 0.078124 0.074218 0.011719 0.14453 0.023438 0.21875 0.03125l0.09375-0.011718c0.78906-0.019532 1.5391-0.33594 2.1055-0.88672 0.074219-0.070313 0.14062-0.14844 0.20703-0.23047l38.461-38.504 0.22656-0.23047c11.887-11.91 11.887-31.207 0-43.117-5.9453-5.9531-13.73-8.9219-21.523-8.9219-6.957 0-13.926 2.3711-19.57 7.1172-5.6406-4.7539-12.605-7.168-19.555-7.1641zm39.113 6.2305c6.1719 0 12.352 2.3789 17.109 7.1484 9.5156 9.5352 9.5156 24.77 0 34.305l-0.23047 0.23047-36.441 36.508-36.414-36.508-0.23047-0.22656c-9.5156-9.5352-9.5156-24.77 0-34.305 4.7578-4.7695 10.91-7.1289 17.098-7.1289 6.1836 0 12.355 2.3633 17.113 7.1289l-0.003907 0.003906c0.007813 0.011719 0.019531 0.027344 0.027344 0.042969l0.16016 0.14062h-0.003906c0.015625 0.019531 0.035156 0.042969 0.050781 0.066406 0.80469 0.79688 1.9805 1.0977 3.0703 0.78125 0.25391-0.074218 0.49609-0.18359 0.72656-0.31641 0.003907-0.003906 0.011719-0.007812 0.019531-0.007812 0.22266-0.13281 0.42969-0.29688 0.61328-0.48047l0.23047-0.23047c4.7578-4.7656 10.93-7.1484 17.102-7.1484z"/>
<text x="0.0" y="117.5" font-size="5.0" font-weight="bold" font-family="Arbeit Regular, Helvetica, Arial-Unicode, Arial, Sans-serif" fill="#000000">Created by Alzam</text><text x="0.0" y="122.5" font-size="5.0" font-weight="bold" font-family="Arbeit Regular, Helvetica, Arial-Unicode, Arial, Sans-serif" fill="#000000">from Noun Project</text></svg>