<?xml version="1.0" encoding="UTF-8"?>
<svg id="Calque_1" data-name="Calque 1" xmlns="http://www.w3.org/2000/svg" viewBox="0 0 73.77 79.99">
  <path d="M2.51,78.12h20.83c.57,0,1.06-.22,1.48-.54,7.65,1.58,15.52,2.41,23.48,2.41,3.61,0,7.24-.16,10.86-.49,4.7,0,8.72-3.36,9.57-8l5-27.66c.02-.14.04-.28.04-.42.02-2.83-.65-5.3-2.02-7.35-5.17-7.56-18.09-6.08-25.04-5.29-.02,0-.05,0-.07,0V9.44c0-4.15-2.28-7.67-5.81-8.96-3.13-1.15-6.47-.21-8.74,2.46-.2.23-.35.5-.45.78l-10.29,28.78H2.51C1.12,32.5,0,33.63,0,35.01v40.59c-.01,1.39,1.12,2.52,2.51,2.52ZM36.21,5.89c.85-.83,1.86-1.07,2.89-.7,1.16.43,2.51,1.79,2.51,4.24v24.24c0,.74.33,1.44.89,1.92.57.48,1.31.69,2.04.56.87-.14,1.79-.27,2.76-.38,5.47-.63,16.85-1.92,20.28,3.1.28.43,1.14,1.7,1.16,4.29l-4.96,27.44c-.41,2.24-2.35,3.87-4.84,3.88-11.34,1.01-22.46.39-33.09-1.81v-37.66s-.02-.07-.02-.1l10.38-29.02ZM5.02,37.52h15.8v35.57H5.02v-35.57Z"/>
</svg>