<?xml version="1.0" encoding="UTF-8"?>
<svg id="Calque_1" data-name="Calque 1" xmlns="http://www.w3.org/2000/svg" viewBox="0 0 73.77 79.99">
  <defs>
    <style>
      .cls-1 {
        fill: #999;
      }
    </style>
  </defs>
  <path class="cls-1" d="M71.75,36.07c-5.17-7.56-18.09-6.08-25.04-5.29h-.07V9.44c0-4.15-2.28-7.67-5.81-8.96-3.13-1.15-6.47-.21-8.74,2.46-.2.23-.35.5-.45.78l-10.29,28.78H2.51C1.12,32.5,0,33.63,0,35.01v40.59c-.01,1.39,1.12,2.52,2.51,2.52h20.83c.57,0,1.06-.22,1.48-.54,7.65,1.58,15.52,2.41,23.48,2.41,3.61,0,7.24-.16,10.86-.49,4.7,0,8.72-3.36,9.57-8l5-27.66c.02-.14.04-.28.04-.42.02-2.83-.65-5.3-2.02-7.35ZM20.82,73.09H5.02v-35.57h15.8v35.57Z"/>
</svg>