<?xml version="1.0" encoding="UTF-8"?>
<svg id="Calque_1" data-name="Calque 1" xmlns="http://www.w3.org/2000/svg" viewBox="0 0 95.1 92.2">
  <defs>
    <style>
      .cls-1 {
        fill: #fff;
      }
    </style>
  </defs>
  <path class="cls-1" d="M38.5,75.2h.3c2.4-.2,4.3-2.3,4.1-4.7l-2.8-40.2c-.2-2.4-2.3-4.2-4.7-4.1-2.4.2-4.3,2.3-4.1,4.7l2.8,40.2c.2,2.3,2.1,4.1,4.4,4.1Z"/>
  <path class="cls-1" d="M56.2,75.1h.3c2.3,0,4.2-1.8,4.4-4.1l2.8-40.2c.2-2.4-1.7-4.5-4.1-4.7-2.4-.1-4.5,1.7-4.7,4.1l-2.8,40.2c-.2,2.5,1.6,4.6,4.1,4.7Z"/>
  <path class="cls-1" d="M90.6,8.5h-25.5l-4.7-6.6c-.9-1.2-2.3-1.9-3.7-1.9h-18.4c-1.5,0-2.9.7-3.7,1.9l-4.7,6.6H4.4c-2.4,0-4.4,2-4.4,4.4s2,4.4,4.4,4.4h3.8l7.6,63.5c.8,6.5,6.3,11.4,12.9,11.4h37.7c6.6,0,12.1-4.9,12.9-11.4l7.6-63.5h3.8c2.4,0,4.4-2,4.4-4.4-.1-2.4-2.1-4.4-4.5-4.4ZM70.5,79.7c-.2,2.1-2,3.7-4.1,3.7H28.7c-2.1,0-3.9-1.6-4.1-3.7l-7.5-62.4h60.9l-7.5,62.4Z"/>
</svg>