<?xml version="1.0" encoding="UTF-8"?>
<svg id="Calque_1" data-name="Calque 1" xmlns="http://www.w3.org/2000/svg" viewBox="0 0 56.98 74.81">
  <defs>
    <style>
      .cls-1 {
        fill: #fff;
      }
    </style>
  </defs>
  <path class="cls-1" d="M50.71,7.47h-11.54v-1.46c0-3.31-2.7-6.01-6.01-6.01h-9.34c-3.31,0-6.01,2.7-6.01,6.01v1.46H6.27c-3.46,0-6.27,2.81-6.27,6.27v1.86c0,1.1.9,2,2,2h52.98c1.1,0,2-.9,2-2v-1.86c0-3.46-2.81-6.27-6.27-6.27Z"/>
  <path class="cls-1" d="M51.98,19.93H5c-.56,0-1.1.24-1.48.66s-.56.98-.51,1.54l4.66,47.26c.29,3.09,2.84,5.42,5.94,5.42h29.74c3.1,0,5.66-2.33,5.94-5.41l4.67-47.27c.06-.56-.13-1.12-.51-1.54-.37-.42-.91-.66-1.47-.66ZM18.63,62.82h-.14c-1.04,0-1.92-.81-1.99-1.86l-2-28.4c-.08-1.1.75-2.06,1.85-2.14,1.1-.07,2.06.75,2.14,1.85l2,28.4c.07,1.12-.76,2.08-1.86,2.15ZM30.49,60.83c0,1.1-.9,2-2,2s-2-.9-2-2v-28.4c0-1.1.9-2,2-2s2,.9,2,2v28.4ZM40.49,60.97c-.07,1.05-.95,1.86-1.99,1.86h-.14c-1.1-.08-1.93-1.03-1.85-2.14l2-28.4c.08-1.1,1.02-1.92,2.14-1.85,1.1.08,1.93,1.03,1.85,2.14l-2.01,28.39Z"/>
</svg>